<svg width="34" height="29" viewBox="0 0 34 29" fill="none" xmlns="http://www.w3.org/2000/svg">
<path d="M16.7436 7.59621C15.2531 8.43737 13.1466 8.46264 11.6376 7.65815C10.5953 7.10241 9.4154 6.78904 8.16565 6.78904C3.93204 6.78904 0.5 10.3846 0.5 14.82C0.5 19.2554 3.93204 22.8509 8.16565 22.8509C9.47908 22.8509 10.7154 22.5048 11.796 21.895C13.2864 21.0538 15.393 21.0286 16.9019 21.8331C17.9443 22.3888 19.1242 28.5 20.3739 28.5C24.6076 28.5 33.5 19.1066 33.5 14.6713C33.5 10.2358 24.6076 0.5 20.3739 0.5C19.0605 0.5 17.8242 6.98636 16.7436 7.59621Z" fill="#FC6D3E"/>
</svg>
