<svg width="143" height="14" viewBox="0 0 143 14" fill="none" xmlns="http://www.w3.org/2000/svg">
<path d="M6.564 8.924H6.9L7.268 2.444H12.26L10.276 13.5H2.772L0.724 2.444H6.148L6.564 8.924ZM15.4764 4.828C14.6657 4.828 14.0684 4.668 13.6844 4.348C13.3004 4.028 13.1084 3.516 13.1084 2.812C13.1084 2.108 13.3004 1.60133 13.6844 1.292C14.079 0.982666 14.6764 0.827999 15.4764 0.827999C17.0764 0.827999 17.8764 1.47333 17.8764 2.764C17.8764 3.5 17.679 4.028 17.2844 4.348C16.8897 4.668 16.287 4.828 15.4764 4.828ZM13.1084 13.5V5.196H17.8764V13.5H13.1084ZM18.9715 1.58H23.7395V3.596L23.7075 4.284C23.7608 4.156 23.9368 4.06 24.2355 3.996C24.5342 3.92133 24.8542 3.884 25.1955 3.884C26.3795 3.884 27.2968 4.31067 27.9475 5.164C28.6088 6.00667 28.9395 7.20133 28.9395 8.748C28.9395 10.284 28.5982 11.4733 27.9155 12.316C27.2328 13.148 26.2622 13.564 25.0035 13.564C24.1502 13.564 23.4568 13.356 22.9235 12.94C22.8062 12.844 22.6995 12.7267 22.6035 12.588L22.2675 13.5H18.9715V1.58ZM23.4995 8.652V9.996C23.4995 10.1347 23.5368 10.2467 23.6115 10.332C23.6968 10.4173 23.8035 10.46 23.9315 10.46C24.0702 10.46 24.1822 10.4173 24.2675 10.332C24.3635 10.2467 24.4115 10.1347 24.4115 9.996V8.652C24.4115 8.524 24.3635 8.41733 24.2675 8.332C24.1822 8.236 24.0755 8.188 23.9475 8.188C23.8195 8.188 23.7128 8.236 23.6275 8.332C23.5422 8.41733 23.4995 8.524 23.4995 8.652ZM30.0221 8.796C30.0221 7.164 30.3901 5.93733 31.1261 5.116C31.8728 4.29467 33.0888 3.884 34.7741 3.884C36.4595 3.884 37.6328 4.22533 38.2941 4.908C38.9555 5.59067 39.2861 6.71067 39.2861 8.268L39.2061 9.5H34.7901V10.044C35.0568 10.108 35.4461 10.14 35.9581 10.14C37.0461 10.14 37.9261 10.092 38.5981 9.996L38.9341 9.948V12.956C38.8488 13.0093 38.7101 13.0787 38.5181 13.164C38.3368 13.2387 37.8941 13.34 37.1901 13.468C36.4861 13.596 35.7021 13.66 34.8381 13.66C33.1315 13.66 31.8995 13.2547 31.1421 12.444C30.3955 11.6333 30.0221 10.4173 30.0221 8.796ZM34.5501 8.076V8.7H35.4621V8.076C35.4621 7.93733 35.4141 7.82533 35.3181 7.74C35.2328 7.65467 35.1208 7.612 34.9821 7.612C34.8541 7.612 34.7475 7.65467 34.6621 7.74C34.5875 7.82533 34.5501 7.93733 34.5501 8.076ZM46.45 7.548V8.428C46.6633 8.44933 47.0367 8.46 47.57 8.46C48.5727 8.46 49.4687 8.428 50.258 8.364L50.642 8.332V13.116C49.6073 13.4787 48.1353 13.66 46.226 13.66C44.3273 13.66 42.8713 13.1747 41.858 12.204C40.8553 11.2333 40.354 9.79333 40.354 7.884C40.354 5.964 40.85 4.55067 41.842 3.644C42.834 2.73733 44.3113 2.284 46.274 2.284C47.0953 2.284 47.8687 2.332 48.594 2.428C49.33 2.524 49.8527 2.62 50.162 2.716L50.642 2.86V7.788C49.714 7.628 48.3167 7.548 46.45 7.548ZM61.1248 7.452L61.0447 9.42L61.4447 9.404V13.036C61.2527 13.196 60.9221 13.34 60.4527 13.468C59.9834 13.596 59.5407 13.66 59.1247 13.66C58.7087 13.66 58.3781 13.6227 58.1327 13.548C57.8874 13.4733 57.7061 13.3933 57.5887 13.308C57.4714 13.212 57.3807 13.1053 57.3167 12.988C57.2207 12.8173 57.1727 12.6733 57.1727 12.556C56.5861 13.292 55.6527 13.66 54.3727 13.66C52.6127 13.66 51.7327 12.9133 51.7327 11.42C51.7327 10.524 52.0741 9.88933 52.7567 9.516C53.4394 9.132 54.6341 8.90267 56.3407 8.828C56.3407 8.45467 55.9301 8.268 55.1087 8.268C54.5541 8.268 54.0207 8.33733 53.5087 8.476C53.0074 8.61467 52.6447 8.75333 52.4207 8.892L52.0687 9.1V4.892C52.1647 4.81733 52.3087 4.72667 52.5007 4.62C52.6927 4.50267 53.1461 4.35333 53.8607 4.172C54.5754 3.98 55.3594 3.884 56.2127 3.884C57.9194 3.884 59.1621 4.172 59.9408 4.748C60.7301 5.324 61.1248 6.22533 61.1248 7.452ZM56.5967 9.996V9.356L55.6847 9.612V9.996C55.6847 10.1347 55.7274 10.2467 55.8127 10.332C55.9087 10.4173 56.0207 10.46 56.1487 10.46C56.2874 10.46 56.3941 10.4173 56.4687 10.332C56.5541 10.2467 56.5967 10.1347 56.5967 9.996ZM66.76 3.884C67.6027 3.884 68.36 3.932 69.032 4.028C69.7147 4.124 70.184 4.22 70.44 4.316L70.808 4.46V8.46C70.0827 8.08667 69 7.9 67.56 7.9V8.284C68.8827 8.412 69.7893 8.64133 70.28 8.972C70.7707 9.30267 71.016 9.90533 71.016 10.78C71.016 11.6547 70.6907 12.3533 70.04 12.876C69.3893 13.3987 68.2533 13.66 66.632 13.66C65.768 13.66 65 13.612 64.328 13.516C63.656 13.42 63.1973 13.324 62.952 13.228L62.584 13.084V9.612C62.8827 9.76133 63.3413 9.9 63.96 10.028C64.5893 10.1453 65.2347 10.204 65.896 10.204V9.82C64.7547 9.71333 63.8907 9.452 63.304 9.036C62.7173 8.62 62.424 7.948 62.424 7.02C62.424 6.08133 62.7813 5.324 63.496 4.748C64.2107 4.172 65.2987 3.884 66.76 3.884ZM77.7491 8.508V9.228H79.1891V13.004C79.1358 13.0573 79.0451 13.1213 78.9171 13.196C78.7998 13.26 78.4851 13.356 77.9731 13.484C77.4611 13.6013 76.8691 13.66 76.1971 13.66C73.7545 13.66 72.5331 12.5933 72.5331 10.46V8.508H71.9091V4.524C72.3678 4.38533 72.7731 4.12933 73.1251 3.756C73.4771 3.38267 73.7171 3.04667 73.8451 2.748L74.0371 2.284H78.0531V4.044H79.1891V8.508H77.7491ZM90.4374 2.284C91.312 2.284 92.128 2.34267 92.8854 2.46C93.6534 2.56667 94.2027 2.67867 94.5334 2.796L95.0134 2.972V7.548C94.1494 7.15333 92.9654 6.956 91.4614 6.956V7.372C92.848 7.47867 93.8454 7.756 94.4534 8.204C95.0614 8.652 95.3654 9.32933 95.3654 10.236C95.3654 11.324 94.9227 12.1667 94.0374 12.764C93.152 13.3613 91.7867 13.66 89.9414 13.66C88.8854 13.66 87.952 13.6013 87.1414 13.484C86.3307 13.356 85.7867 13.2333 85.5094 13.116L85.0774 12.924V8.94C85.1734 8.98267 85.3174 9.04133 85.5094 9.116C85.7014 9.19067 86.128 9.28667 86.7894 9.404C87.4614 9.52133 88.1814 9.58 88.9494 9.58V9.196C87.648 9.1 86.6667 8.82267 86.0054 8.364C85.344 7.90533 85.0134 7.10533 85.0134 5.964C85.0134 4.82267 85.4667 3.92667 86.3734 3.276C87.28 2.61467 88.6347 2.284 90.4374 2.284ZM101.948 8.508V9.228H103.388V13.004C103.335 13.0573 103.244 13.1213 103.116 13.196C102.999 13.26 102.684 13.356 102.172 13.484C101.66 13.6013 101.068 13.66 100.396 13.66C97.9532 13.66 96.7319 12.5933 96.7319 10.46V8.508H96.1079V4.524C96.5665 4.38533 96.9719 4.12933 97.3239 3.756C97.6759 3.38267 97.9159 3.04667 98.0439 2.748L98.2359 2.284H102.252V4.044H103.388V8.508H101.948ZM109.914 4.044H114.442V13.5H110.41L110.25 12.332C110.207 12.4493 110.111 12.5933 109.962 12.764C109.813 12.9347 109.653 13.0787 109.482 13.196C109.013 13.5053 108.394 13.66 107.626 13.66C106.581 13.66 105.791 13.372 105.258 12.796C104.735 12.22 104.474 11.388 104.474 10.3V4.044H109.002V9.308C109.002 9.436 109.045 9.548 109.13 9.644C109.226 9.72933 109.338 9.772 109.466 9.772C109.594 9.772 109.701 9.72933 109.786 9.644C109.871 9.548 109.914 9.436 109.914 9.308V4.044ZM125.493 13.5H121.461L121.301 12.332C121.258 12.4493 121.167 12.5933 121.029 12.764C120.901 12.9347 120.762 13.0787 120.613 13.196C120.218 13.5053 119.711 13.66 119.093 13.66C117.973 13.66 117.098 13.2333 116.469 12.38C115.839 11.5267 115.525 10.3373 115.525 8.812C115.525 7.276 115.845 6.07067 116.485 5.196C117.125 4.32133 117.999 3.884 119.109 3.884C119.45 3.884 119.754 3.92667 120.021 4.012C120.287 4.08667 120.469 4.16133 120.565 4.236L120.709 4.348V1.58H125.493V13.5ZM120.053 8.652V9.996C120.053 10.1347 120.09 10.2467 120.165 10.332C120.25 10.4173 120.357 10.46 120.485 10.46C120.623 10.46 120.735 10.4173 120.821 10.332C120.917 10.2467 120.965 10.1347 120.965 9.996V8.652C120.965 8.524 120.917 8.41733 120.821 8.332C120.735 8.236 120.629 8.188 120.501 8.188C120.373 8.188 120.266 8.236 120.181 8.332C120.095 8.41733 120.053 8.524 120.053 8.652ZM128.943 4.828C128.133 4.828 127.535 4.668 127.151 4.348C126.767 4.028 126.575 3.516 126.575 2.812C126.575 2.108 126.767 1.60133 127.151 1.292C127.546 0.982666 128.143 0.827999 128.943 0.827999C130.543 0.827999 131.343 1.47333 131.343 2.764C131.343 3.5 131.146 4.028 130.751 4.348C130.357 4.668 129.754 4.828 128.943 4.828ZM126.575 13.5V5.196H131.343V13.5H126.575ZM137.734 13.644H137.094C135.537 13.644 134.369 13.26 133.59 12.492C132.822 11.724 132.438 10.4867 132.438 8.78C132.438 7.07333 132.822 5.83067 133.59 5.052C134.369 4.27333 135.537 3.884 137.094 3.884H137.734C139.292 3.884 140.46 4.27333 141.238 5.052C142.017 5.83067 142.406 7.07333 142.406 8.78C142.406 10.4867 142.017 11.724 141.238 12.492C140.47 13.26 139.302 13.644 137.734 13.644ZM136.966 8.652V9.996C136.966 10.1347 137.004 10.2467 137.078 10.332C137.164 10.4173 137.27 10.46 137.398 10.46C137.537 10.46 137.649 10.4173 137.734 10.332C137.83 10.2467 137.878 10.1347 137.878 9.996V8.652C137.878 8.524 137.83 8.41733 137.734 8.332C137.649 8.236 137.542 8.188 137.414 8.188C137.286 8.188 137.18 8.236 137.094 8.332C137.009 8.41733 136.966 8.524 136.966 8.652Z" fill="black"/>
</svg>
