<svg width="24" height="24" viewBox="0 0 24 24" fill="none" xmlns="http://www.w3.org/2000/svg">
<path d="M16.5012 3.5C17.8601 3.50154 19.1634 4.04204 20.1243 5.00293C21.025 5.90367 21.5561 7.10489 21.6204 8.37109L21.6272 8.62598C21.6268 11.2881 20.0824 14.1105 16.8567 17.0137C15.3988 18.3205 13.8134 19.4777 12.1243 20.4678C12.0869 20.4887 12.045 20.5 12.0022 20.5C11.9594 20.5 11.9175 20.4887 11.8801 20.4678C11.6949 20.364 9.29363 19.0012 6.94556 16.8398C4.57601 14.6587 2.3772 11.7713 2.3772 8.625L2.3811 8.42383C2.42091 7.41936 2.75545 6.44682 3.34497 5.62891C3.97378 4.75656 4.86106 4.10409 5.8811 3.76367C6.90126 3.42324 8.00279 3.41245 9.02954 3.73242C10.0562 4.05241 10.9567 4.6872 11.6028 5.54688L12.0032 6.0791L12.4026 5.5459C12.8795 4.90958 13.4987 4.39324 14.2102 4.03809C14.9217 3.68302 15.7061 3.49865 16.5012 3.5Z" stroke="black"/>
</svg>
