<svg width="13" height="16" viewBox="0 0 13 16" fill="none" xmlns="http://www.w3.org/2000/svg">
<path d="M12.0385 9.41375C11.9679 9.48625 11.7012 9.79625 11.4528 10.0512C9.99635 11.655 6.19703 14.28 4.20848 15.0813C3.90648 15.21 3.14296 15.4825 2.73502 15.5C2.34413 15.5 1.97151 15.41 1.61593 15.2275C1.17267 14.9725 0.817097 14.5713 0.62226 14.0975C0.496834 13.7688 0.301997 12.785 0.301997 12.7675C0.10716 11.6913 0 9.9425 0 8.01C0 6.16875 0.10716 4.49125 0.266683 3.39875C0.284949 3.38125 0.479786 2.15875 0.692888 1.74C1.08378 0.975 1.8473 0.5 2.66439 0.5H2.73502C3.26717 0.51875 4.38626 0.99375 4.38626 1.01125C6.26766 1.81375 9.9793 4.31 11.471 5.96875C11.471 5.96875 11.8911 6.395 12.0738 6.66125C12.3587 7.04375 12.5 7.5175 12.5 7.99125C12.5 8.52 12.3405 9.0125 12.0385 9.41375Z" fill="white"/>
</svg>
