<svg width="16" height="16" viewBox="0 0 16 16" fill="none" xmlns="http://www.w3.org/2000/svg">
<path d="M13.6797 4.82031C14.5236 5.66423 14.9977 6.80882 14.9977 8.00229C14.9977 9.19577 14.5236 10.3404 13.6797 11.1843" stroke="#AAAAAA" stroke-linecap="round" stroke-linejoin="round"/>
<path d="M5 5.5V10.5" stroke="#AAAAAA" stroke-linecap="round" stroke-linejoin="round"/>
<path d="M11.9121 6.58594C12.2872 6.96101 12.4979 7.46972 12.4979 8.00015C12.4979 8.53058 12.2872 9.03929 11.9121 9.41436" stroke="#AAAAAA" stroke-linecap="round" stroke-linejoin="round"/>
<path d="M3 2.5L13 13.5" stroke="#AAAAAA" stroke-linecap="round" stroke-linejoin="round"/>
<path d="M9.5 9.64891V13.9996L5 10.4996H2C1.86739 10.4996 1.74021 10.447 1.64645 10.3532C1.55268 10.2594 1.5 10.1322 1.5 9.99963V5.99963C1.5 5.86702 1.55268 5.73985 1.64645 5.64608C1.74021 5.55231 1.86739 5.49963 2 5.49963H5L5.42642 5.16797" stroke="#AAAAAA" stroke-linecap="round" stroke-linejoin="round"/>
<path d="M7.00977 3.93681L9.50002 2V6.67606" stroke="#AAAAAA" stroke-linecap="round" stroke-linejoin="round"/>
</svg>
